<svg width="24" height="24" viewBox="0 0 24 24" fill="none" xmlns="http://www.w3.org/2000/svg">
<path fill-rule="evenodd" clip-rule="evenodd" d="M18 10H19.5C20.8804 10 22 8.88131 22 7.50032V6C22 5.20421 21.6838 4.44134 21.1215 3.87885C20.5589 3.3161 19.7956 3 19 3H9.00035C8.20622 3 7.44312 3.31379 6.87986 3.87616C6.31591 4.43844 6 5.20128 6 5.9964V15H5.50043C4.12012 15 3 16.1188 3 17.5V17.9675C3 18.7713 3.31912 19.543 3.88829 20.1119C4.45715 20.6806 5.22857 21 6.0329 21H15C15.0109 21 15.0217 20.9998 15.0324 20.9995C16.6737 20.9832 18 19.6468 18 18.0016V10ZM18 6V8H19.5C19.7764 8 20 7.77618 20 7.50032V6C20 5.73487 19.8946 5.48051 19.707 5.29284C19.5197 5.10544 19.2653 5 19 5C18.7347 5 18.4803 5.10544 18.293 5.29284C18.1053 5.48051 18 5.73487 18 6ZM12 18.0051C12.0004 18.3539 12.0604 18.6887 12.1704 19H6.0329C5.7588 19 5.496 18.8912 5.30224 18.6975C5.10877 18.5041 5 18.2414 5 17.9675V17.5C5 17.2242 5.22388 17 5.50043 17H11.4996C11.7758 17 11.9995 17.2237 12 17.499V18.0016V18.0051ZM10 8C10 7.44772 10.4477 7 11 7H13C13.5523 7 14 7.44772 14 8C14 8.55228 13.5523 9 13 9H11C10.4477 9 10 8.55228 10 8ZM11 11C10.4477 11 10 11.4477 10 12C10 12.5523 10.4477 13 11 13H12C12.5523 13 13 12.5523 13 12C13 11.4477 12.5523 11 12 11H11Z" fill="black"/>
</svg>
