<svg width="24" height="24" viewBox="0 0 24 24" fill="none" xmlns="http://www.w3.org/2000/svg">
<path d="M7 15.4996C7 15.4996 7 8.27504 7 5.9964C7 5.46648 7.21052 4.95846 7.58617 4.58406C7.96104 4.20966 8.46974 4 9.00035 4C12.1715 4 18 4 18 4" stroke="black" stroke-width="2" stroke-miterlimit="1.5" stroke-linecap="square" stroke-linejoin="round"/>
<path d="M13.9974 20H6.0329C5.49368 20 4.97658 19.7859 4.59526 19.4047C4.21395 19.0235 4 18.5063 4 17.9675C4 17.8101 4 17.6529 4 17.5C4 16.6715 4.672 16 5.50043 16C7.67466 16 9.32534 16 11.4996 16C12.328 16 13 16.6716 13 17.5V18.002C13 19.105 13.895 20 14.998 20H15.002C16.105 20 17 19.105 17 18.002V9" stroke="black" stroke-width="2" stroke-miterlimit="1.5" stroke-linecap="square" stroke-linejoin="round"/>
<path fill-rule="evenodd" clip-rule="evenodd" d="M19 4C19.5304 4 20.0393 4.21077 20.4143 4.58585C20.7892 4.96092 21 5.46954 21 6C21 6.5005 21 7.02884 21 7.50032C21 8.32874 20.3284 9 19.5 9H17V6C17 5.46954 17.2108 4.96092 17.5857 4.58585C17.9607 4.21077 18.4696 4 19 4Z" stroke="black" stroke-width="2" stroke-miterlimit="1.5" stroke-linecap="round" stroke-linejoin="round"/>
<path d="M11 8H13" stroke="black" stroke-width="2" stroke-miterlimit="1.5" stroke-linecap="round" stroke-linejoin="round"/>
<path d="M11 12H12" stroke="black" stroke-width="2" stroke-miterlimit="1.5" stroke-linecap="round" stroke-linejoin="round"/>
</svg>
